<svg xmlns="http://www.w3.org/2000/svg" viewBox="0 0 512 512" width="512" height="512">
  <defs>
    <linearGradient id="bgGrad" x1="0%" y1="0%" x2="100%" y2="100%">
      <stop offset="0%" style="stop-color:#1a1a2e"/>
      <stop offset="100%" style="stop-color:#16213e"/>
    </linearGradient>
    <linearGradient id="leafGrad" x1="0%" y1="0%" x2="100%" y2="100%">
      <stop offset="0%" style="stop-color:#22c55e"/>
      <stop offset="100%" style="stop-color:#16a34a"/>
    </linearGradient>
  </defs>
  <rect width="512" height="512" rx="80" fill="url(#bgGrad)"/>
  <g transform="translate(256, 256)">
    <path d="M-20,-120 Q80,-100 100,-20 Q120,80 40,120 Q0,140 -40,120 Q-80,100 -100,40 Q-120,-40 -80,-100 Q-40,-140 -20,-120 Z" 
          fill="url(#leafGrad)" opacity="0.95"/>
    <path d="M0,120 Q0,160 0,180" stroke="url(#leafGrad)" stroke-width="16" stroke-linecap="round" fill="none"/>
    <path d="M0,-80 Q0,0 0,80 M-40,-20 Q0,20 0,20 M40,-40 Q0,0 0,0" 
          stroke="rgba(255,255,255,0.3)" stroke-width="4" stroke-linecap="round" fill="none"/>
  </g>
</svg>
