<svg xmlns="http://www.w3.org/2000/svg" viewBox="0 0 192 192" width="192" height="192">
  <defs>
    <linearGradient id="bgGrad" x1="0%" y1="0%" x2="100%" y2="100%">
      <stop offset="0%" style="stop-color:#1a1a2e"/>
      <stop offset="100%" style="stop-color:#16213e"/>
    </linearGradient>
    <linearGradient id="leafGrad" x1="0%" y1="0%" x2="100%" y2="100%">
      <stop offset="0%" style="stop-color:#22c55e"/>
      <stop offset="100%" style="stop-color:#16a34a"/>
    </linearGradient>
  </defs>
  <rect width="192" height="192" rx="30" fill="url(#bgGrad)"/>
  <g transform="translate(96, 96)">
    <path d="M-8,-45 Q30,-38 38,-8 Q45,30 15,45 Q0,53 -15,45 Q-30,38 -38,15 Q-45,-15 -30,-38 Q-15,-53 -8,-45 Z" 
          fill="url(#leafGrad)" opacity="0.95"/>
    <path d="M0,45 Q0,60 0,68" stroke="url(#leafGrad)" stroke-width="6" stroke-linecap="round" fill="none"/>
    <path d="M0,-30 Q0,0 0,30 M-15,-8 Q0,8 0,8 M15,-15 Q0,0 0,0" 
          stroke="rgba(255,255,255,0.3)" stroke-width="1.5" stroke-linecap="round" fill="none"/>
  </g>
</svg>
